<svg version='1.1' xmlns='http://www.w3.org/2000/svg' xmlns:xlink='http://www.w3.org/1999/xlink'>
  <defs>
    <symbol id='menuLines' viewBox='0 0 18 15'>
      <path fill='#424242' d='M18,1.484c0,0.82-0.665,1.484-1.484,1.484H1.484C0.665,2.969,0,2.304,0,1.484l0,0C0,0.665,0.665,0,1.484,0 h15.031C17.335,0,18,0.665,18,1.484L18,1.484z'/>
      <path fill='#424242' d='M18,7.516C18,8.335,17.335,9,16.516,9H1.484C0.665,9,0,8.335,0,7.516l0,0c0-0.82,0.665-1.484,1.484-1.484 h15.031C17.335,6.031,18,6.696,18,7.516L18,7.516z'/>
      <path fill='#424242' d='M18,13.516C18,14.335,17.335,15,16.516,15H1.484C0.665,15,0,14.335,0,13.516l0,0 c0-0.82,0.665-1.484,1.484-1.484h15.031C17.335,12.031,18,12.696,18,13.516L18,13.516z'/>
    </symbol>

    <symbol id='facebook' viewBox='0 0 24 24'>
      <path d="M22.675 0h-21.35c-.732 0-1.325.593-1.325 1.325v21.351c0 .731.593 1.324 1.325 1.324h11.495v-9.294h-3.128v-3.622h3.128v-2.671c0-3.1 1.893-4.788 4.659-4.788 1.325 0 2.463.099 2.795.143v3.24l-1.918.001c-1.504 0-1.795.715-1.795 1.763v2.313h3.587l-.467 3.622h-3.12v9.293h6.116c.73 0 1.323-.593 1.323-1.325v-21.35c0-.732-.593-1.325-1.325-1.325z"/>
    </symbol>

<symbol id="instagram" viewBox="0 0 24 24"> <path d="M12 2.163c3.204 0 3.584.012 4.85.07 1.366.062 2.633.337 3.608 1.312.975.975 1.25 2.242 1.312 3.608.058 1.266.07 1.646.07 4.85s-.012 3.584-.07 4.85c-.062 1.366-.337 2.633-1.312 3.608-.975.975-2.242 1.25-3.608 1.312-1.266.058-1.646.07-4.85.07s-3.584-.012-4.85-.07c-1.366-.062-2.633-.337-3.608-1.312-.975-.975-1.25-2.242-1.312-3.608-.058-1.266-.07-1.646-.07-4.85s.012-3.584.07-4.85c.062-1.366.337-2.633 1.312-3.608.975-.975 2.242-1.25 3.608-1.312 1.266-.058 1.646-.07 4.85-.07zm0 2.163c-3.21 0-3.58.013-4.848.072-1.168.054-1.805.25-2.227.42-.42.172-.642.45-.92.729-.28.277-.558.5-.729.92-.172.422-.367 1.057-.42 2.227-.059 1.268-.072 1.638-.072 4.848s.013 3.58.072 4.848c.053 1.168.25 1.805.42 2.227.172.42.45.642.729.92.277.28.5.558.92.729.422.172 1.057.367 2.227.42 1.268.059 1.638.072 4.848.072s3.58-.013 4.848-.072c1.168-.053 1.805-.25 2.227-.42.42-.172.642-.45.92-.729.28-.277.558-.5.729-.92.172-.422.367-1.057.42-2.227.059-1.268.072-1.638.072-4.848s-.013-3.58-.072-4.848c-.053-1.168-.25-1.805-.42-2.227-.172-.42-.45-.642-.729-.92-.277-.28-.5-.558-.92-.729-.422-.172-1.057-.367-2.227-.42-1.268-.059-1.638-.072-4.848-.072zm0 4.792c-2.43 0-4.408 1.978-4.408 4.408s1.978 4.408 4.408 4.408 4.408-1.978 4.408-4.408-1.978-4.408-4.408-4.408zm0 2.163c1.285 0 2.328 1.043 2.328 2.328s-1.043 2.328-2.328 2.328-2.328-1.043-2.328-2.328 1.043-2.328 2.328-2.328zm7.411-5.33c-.965 0-1.75.786-1.75 1.75s.785 1.75 1.75 1.75 1.75-.786 1.75-1.75-.786-1.75-1.75-1.75z"/> </symbol> 

<svg width="24" height="24" viewBox="0 0 24 24">
    <use href="#pinterest"></use>
</svg>

<symbol id='pinterest' viewBox='0 0 24 24'>
    <title>Pinterest icon</title>
    <path d='M12 0C5.373 0 0 5.373 0 12c0 5.25 3.398 9.697 8.163 11.396-.075-.66-.11-1.32-.085-1.986.065-.55.374-1.928.374-1.928s-.01-1.602-.01-1.983c0-.36-.075-.62-.235-.98c-.14-.29-.6-.73-.6-1.74 0-.96.535-1.78.535-1.78s.3-1.25.3-2.93c0-1.57-.92-2.73-2.03-3.69-.97-1.07-2.16-1.5-3.08-1.5-.92 0-1.72.63-1.72 1.48 0 .85.6 2.09.9 2.76.15.35.25.68.25 1.15 0 .5-.19.9-.45 1.3-.26.4-.64.7-.96.7-.42 0-1.08-.43-1.08-1.29 0-.86.9-1.58 1.4-2.31.2-.29.4-.5.4-.81 0-.17-.11-.2-.11-.37 0-.08-.03-.22-.03-.22s-.15-.4-.15-.46c-.05-.07-.08-.12-.08-.16-.06-.11-.08-.13-.15-.22-.05-.08-.08-.16-.13-.23-.05-.07-.08-.11-.11-.15-.05-.05-.08-.07-.1-.08-.05-.02-.1-.02-.11-.02-.05 0-.08 0-.11.01-.06.02-.11.05-.16.08-.08.05-.15.11-.2.17-.06.07-.11.13-.16.2-.05.08-.08.13-.11.19-.05.08-.08.15-.1.22-.05.1-.06.18-.06.27 0 .04 0 .07.01.1.01.03.02.05.03.08.03.07.05.14.07.2.03.07.05.13.06.18.02.07.03.14.03.2 0 .05 0 .08.01.11.01.03.01.05.01.08 0 .06.01"/>
</symbol>


<symbol id='linkedin' viewBox='0 0 24 24'> <title>LinkedIn icon</title> <path d='M19 0h-14c-2.761 0-5 2.239-5 5v14c0 2.761 2.239 5 5 5h14c2.762 0 5-2.239 5-5v-14c0-2.761-2.238-5-5-5zm-11 19h-3v-11h3v11zm-1.5-12.268c-.966 0-1.75-.79-1.75-1.764s.784-1.764 1.75-1.764 1.75.79 1.75 1.764-.783 1.764-1.75 1.764zm13.5 12.268h-3v-5.604c0-3.368-4-3.113-4 0v5.604h-3v-11h3v1.765c1.396-2.586 7-2.777 7 2.476v6.759z'/> </symbol> 

<symbol id="x" viewBox="0 0 24 24"> <path d="M18.901 1.153C22.695 1.153 24 0 24 0L19.492 7.391C19.78 8.01 20 8.706 20 9.444C20 14.887 15.54 19.336 10.116 19.336C6.184 19.336 2.784 17.135 1.153 13.844L0 13.23C0 13.23 2.196 14.47 5 14.77C3.12 15.617 1.571 16.592 1.571 16.592L0 18.067C0 18.067 4.195 20.407 8.88 20.716C8.88 20.716 9.42 20.771 9.972 20.771C15.396 20.771 19.846 16.322 19.846 10.898C19.846 10.347 19.791 9.794 19.684 9.256L22.675 0zM7.5 12.5C7.5 12.5 10 10.5 10 7.5L13.5 4L13.5 12.5C13.5 12.5 16 10.5 16 7.5L19.5 4V12.5C19.5 12.5 22 10.5 22 7.5L25.5 4V12.5C25.5 12.5 28 10.5 28 7.5L31.5 4V12.5C31.5 12.5 34 10.5 34 7.5L37.5 4V12.5C37.5 12.5 40 10.5 40 7.5L43.5 4V12.5C43.5 12.5 46 10.5 46 7.5L49.5 4V12.5C49.5 12.5 52 10.5 52 7.5L55.5 4V12.5C55.5 12.5 58 10.5 58 7.5L61.5 4V12.5C61.5 12.5 64 10.5 64 7.5L67.5 4V12.5C67.5 12.5 70 10.5 70 7.5L73.5 4V12.5C73.5 12.5 76 10.5 76 7.5L79.5 4V12.5C79.5 12.5 82 10.5 82 7.5L85.5 4V12.5C85.5 12.5 88 10.5 88 7.5L91.5 4V12.5C91.5 12.5 94 10.5 94 7.5L97.5 4V12.5C97.5 12.5 100 10.5 100 7.5L103.5 4V12.5C103.5 12.5 106 10.5 106 7.5L109.5 4V12.5C109.5 12.5 112 10.5 112 7.5L115.5 4V12.5C115.5 12.5 118 10.5 118 7.5L121.5 4V12.5C121.5 12.5 124 10.5 124 7.5L127.5 4V12.5C127.5 12.5 130 10.5 130 7.5L133.5 4V12.5C133.5 12.5 136 10.5 136 7.5L139.5 4V12.5C139.5 12.5 142 10.5 142 7.5L145.5 4V12.5C145.5 12.5 148 10.5 148 7.5L151.5 4V12.5C151.5 12.5 154 10.5 154 7.5L157.5 4V12.5C157.5 12.5 160 10.5 160 7.5L163.5 4V12.5C163.5 12.5 166 10.5 166 7.5L169.5 4V12.5C169.5 12.5 172 10.5 172 7.5L175.5 4V12.5C175.5 12.5 178 10.5 178 7.5L181.5 4V12.5C181.5 12.5 184 10.5 184 7.5L187.5 4V12.5C187.5 12.5 190 10.5 190 7.5L193.5 4V12.5C193.5 12.5 196 10.5 196 7.5L199.5 4V12.5C199.5 12.5 202 10.5 202 7.5L205.5 4V12.5C205.5 12.5 208 10.5 208 7.5L211.5 4V12.5C211.5 12.5 214 10.5 214 7.5L217.5 4V12.5C217.5 12.5 220 10.5 220 7.5L223.5 4V12.5C223.5 12.5 226 10.5 226 7.5L229.5 4V12.5C229.5 12.5 232 10.5 232 7.5L235.5 4V12.5C235.5 12.5 238 10.5 238 7.5L241.5 4V12.5C241.5 12.5 244 10.5 244 7.5L247.5 4V12.5C247.5 12.5 250 10.5 250 7.5L253.5 4V12.5C253.5 12.5 256 10.5 256 7.5L259.5 4V12.5C259.5 12.5 262 10.5 262 7.5L265.5 4V12.5C265.5 12.5 268 10.5 268 7.5L271.5 4V12.5C271.5 12.5 274 10.5 274 7.5L277.5 4V12.5C277.5 12.5 280 10.5 280 7.5L283.5 4V12.5C283.5 12.5 286 10.5 286 7.5L289.5 4V12.5C289.5 12.5 292 10.5 292 7.5L295.5 4V12.5C295.5 12.5 298 10.5 298 7.5L301.5 4V12.5C301.5 12.5 304 10.5 304 7.5L307.5 4V12.5C307.5 12.5 310 10.5 310 7.5L313.5 4V12.5C313.5 12.5 316 10.5 316 7.5L319.5 4V12.5C319.5 12.5 322 10.5 322 7.5L325.5 4V12.5C325.5 12.5 328 10.5 328 7.5L331.5 4V12.5C331.5 12.5 334 10.5 334 7.5L337.5 4V12.5C337.5 12.5 340 10.5 340 7.5L343.5 4V12.5C343.5 12.5 346 10.5 346 7.5L349.5 4V12.5C349.5 12.5 352 10.5 352 7.5L355.5 4V12.5C355.5 12.5 358 10.5 358 7.5L361.5 4V12.5C361.5 12.5 364 10.5 364 7.5L367.5 4V12.5C367.5 12.5 370 10.5 370 7.5L373.5 4V12.5C373.5 12.5 376 10.5 376 7.5L379.5 4V12.5C379.5 12.5 382 10.5 382 7.5L385.5 4V12.5C385.5 12.5 388 10.5 388 7.5L391.5 4V12.5C391.5 12.5 394 10.5 394 7.5L397.5 4V12.5C397.5 12.5 400 10.5 400 7.5L403.5 4V12.5C403.5 12.5 406 10.5 406 7.5L409.5 4V12.5C409.5 12.5 412 10.5 412 7.5L415.5 4V12.5C415.5 12.5 418 10.5 418 7.5L421.5 4V12.5C421.5 12.5 424 10.5 424 7.5L427.5 4V12.5C427.5 12.5 430 10.5 430 7.5L433.5 4V12.5C433.5 12.5 436 10.5 436 7.5L439.5 4V12.5C439.5 12.5 442 10.5 442 7.5L445.5 4V12.5C445.5 12.5 448 10.5 448 7.5L451.5 4V12.5C451.5 12.5 454 10.5 454 7.5L457.5 4V12.5C457.5 12.5 460 10.5 460 7.5L463.5 4V12.5C463.5 12.5 466 10.5 466 7.5L469.5 4V12.5C469.5 12.5 472 10.5 472 7.5L475.5 4V12.5C475.5 12.5 478 10.5 478 7.5L481.5 4V12.5C481.5 12.5 484 10.5 484 7.5L487.5 4V12.5C487.5 12.5 490 10.5 490 7.5L493.5 4V12.5C493.5 12.5 496 10.5 496 7.5L499.5 4V12.5C499.5 12.5 502 10.5 502 7.5L505.5 4V12.5C505.5 12.5 508 10.5 508 7.5L511.5 4V12.5C511.5 12.5 514 10.5 514 7.5L517.5 4V12.5C517.5 12.5 520 10.5 520 7.5L523.5 4V12.5C523.5 12.5 526 10.5 526 7.5L529.5 4V12.5C529.5 12.5 532 10.5 532 7.5L535.5 4V12.5C535.5 12.5 538 10.5 538 7.5L541.5 4V12.5C541.5 12.5 544 10.5 544 7.5L547.5 4V12.5C547.5 12.5 550 10.5 550 7.5L553.5 4V12.5C553.5 12.5 556 10.5 556 7.5L559.5 4V12.5C559.5 12.5 562 10.5 562 7.5L565.5 4V12.5C565.5 12.5 568 10.5 568 7.5L571.5 4V12.5C571.5 12.5 574 10.5 574 7.5L577.5 4V12.5C577.5 12.5 580 10.5 580 7.5L583.5 4V12.5C583.5 12.5 586 10.5 586 7.5L589.5 4V12.5C589.5 12.5 592 10.5 592 7.5L595.5 4V12.5C595.5 12.5 598 10.5 598 7.5L601.5 4V12.5C601.5 12.5 604 10.5 604 7.5L607.5 4V12.5C607.5 12.5 610 10.5 610 7.5L613.5 4V12.5C613.5 12.5 616 10.5 616 7.5L619.5 4V12.5C619.5 12.5 622 10.5 622 7.5L625.5 4V12.5C625.5 12.5 628 10.5 628 7.5L631.5 4V12.5C631.5 12.5 634 10.5 634 7.5L637.5 4V12.5C637.5 12.5 640 10.5 640 7.5L643.5 4V12.5C643.5 12.5 646 10.5 646 7.5L649.5 4V12.5C649.5 12.5 652 10.5 652 7.5L655.5 4V12.5C655.5 12.5 658 10.5 658 7.5L661.5 4V12.5C661.5 12.5 664 10.5 664 7.5L667.5 4V12.5C667.5 12.5 670 10.5 670 7.5L673.5 4V12.5C673.5 12.5 676 10.5 676 7.5L679.5 4V12.5C679.5 12.5 682 10.5 682 7.5L685.5 4V12.5C685.5 12.5 688 10.5 688 7.5L691.5 4V12.5C691.5 12.5 694 10.5 694 7.5L697.5 4V12.5C697.5 12.5 700 10.5 700 7.5L703.5 4V12.5C703.5 12.5 706 10.5 706 7.5L709.5 4V12.5C709.5 12.5 712 10.5 712 7.5L715.5 4V12.5C715.5 12.5 718 10.5 718 7.5L721.5 4V12.5C721.5 12.5 724 10.5 724 7.5L727.5 4V12.5C727.5 12.5 730 10.5 730 7.5L733.5 4V12.5C733.5 12.5 736 10.5 736 7.5L739.5 4V12.5C739.5 12.5 742 10.5 742 7.5L745.5 4V12.5C745.5 12.5 748 10.5 748 7.5L751.5 4V12.5C751.5 12.5 754 10.5 754 7.5L757.5 4V12.5C757.5 12.5 760 10.5 760 7.5L763.5 4V12.5C763.5 12.5 766 10.5 766 7.5L769.5 4V12.5C769.5 12.5 772 10.5 772 7.5L775.5 4V12.5C775.5 12.5 778 10.5 778 7.5L781.5 4V12.5C781.5 12.5 784 10.5 784 7.5L787.5 4V12.5C787.5 12.5 790 10.5 790 7.5L793.5 4V12.5C793.5 12.5 796 10.5 796 7.5L799.5 4V12.5C799.5 12.5 802 10.5 802 7.5L805.5 4V12.5C805.5 12.5 808 10.5 808 7.5L811.5 4V12.5C811.5 12.5 814 10.5 814 7.5L817.5 4V12.5C817.5 12.5 820 10.5 820 7.5L823.5 4V12.5C823.5 12.5 826 10.5 826 7.5L829.5 4V12.5C829.5 12.5 832 10.5 832 7.5L835.5 4V12.5C835.5 12.5 838 10.5 838 7.5L841.5 4V12.5C841.5 12.5 844 10.5 844 7.5L847.5 4V12.5C847.5 12.5 850 10.5 850 7.5L853.5 4V12.5C853.5 12.5 856 10.5 856 7.5L859.5 4V12.5C859.5 12.5 862 10.5 862 7.5L865.5 4V12.5C865.5 12.5 868 10.5 868 7.5L871.5 4V12.5C871.5 12.5 874 10.5 874 7.5L877.5 4V12.5C877.5 12.5 880 10.5 880 7.5L883.5 4V12.5C883.5 12.5 886 10.5 886 7.5L889.5 4V12.5C889.5 12.5 892 10.5 892 7.5L895.5 4V12.5C895.5 12.5 898 10.5 898 7.5L901.5 4V12.5C901.5 12.5 904 10.5 904 7.5L907.5 4V12.5C907.5 12.5 910 10.5 910 7.5L913.5 4V12.5C913.5 12.5 916 10.5 916 7.5L919.5 4V12.5C919.5 12.5 922 10.5 922 7.5L925.5 4V12.5C925.5 12.5 928 10.5 928 7.5L931.5 4V12.5C931.5 12.5 934 10.5 934 7.5L937.5 4V12.5C937.5 12.5 940 10.5 940 7.5L943.5 4V12.5C943.5 12.5 946 10.5 946 7.5L949.5 4V12.5C949.5 12.5 952 10.5 952 7.5L955.5 4V12.5C955.5 12.5 958 10.5 958 7.5L961.5 4V12.5C961.5 12.5 964 10.5 964 7.5L967.5 4V12.5C967.5 12.5 970 10.5 970 7.5L973.5 4V12.5C973.5 12.5 976 10.5 976 7.5L979.5 4V12.5C979.5 12.5 982 10.5 982 7.5L985.5 4V12.5C985.5 12.5 988 10.5 988 7.5L991.5 4V12.5C991.5 12.5 994 10.5 994 7.5L997.5 4V12.5C997.5 12.5 1000 10.5 1000 7.5L1003.5 4V12.5C1003.5 12.5 1006 10.5 1006 7.5L1009.5 4V12.5C1009.5 12.5 1012 10.5 1012 7.5L1015.5 4V12.5C1015.5 12.5 1018 10.5 1018 7.5L1021.5 4V12.5C1021.5 12.5 1024 10.5 1024 7.5L1027.5 4V12.5C1027.5 12.5 1030 10.5 1030 7.5L1033.5 4V12.5C1033.5 12.5 1036 10.5 1036 7.5L1039.5 4V12.5C1039.5 12.5 1042 10.5 1042 7.5L1045.5 4V12.5C1045.5 12.5 1048 10.5 1048 7.5L1051.5 4V12.5C1051.5 12.5 1054 10.5 1054 7.5L1057.5 4V12.5C1057.5 12.5 1060 10.5 1060 7.5L1063.5 4V12.5C1063.5 12.5 1066 10.5 1066 7.5L1069.5 4V12.5C1069.5 12.5 1072 10.5 1072 7.5L1075.5 4V12.5C1075.5 12.5 1078 10.5 1078 7.5L1081.5 4V12.5C1081.5 12.5 1084 10.5 1084 7.5L1087.5 4V12.5C1087.5 12.5 1090 10.5 1090 7.5L1093.5 4V12.5C1093.5 12.5 1096 10.5 1096 7.5L1099.5 4V12.5C1099.5 12.5 1102 10.5 1102 7.5L1105.5 4V12.5C1105.5 12.5 1108 10.5 1108 7.5L1111.5 4V12.5C1111.5 12.5 1114 10.5 1114 7.5L1117.5 4V12.5C1117.5 12.5 1120 10.5 1120 7.5L1123.5 4V12.5C1123.5 12.5 1126 10.5 1126 7.5L1129.5 4V12.5C1129.5 12.5 1132 10.5 1132 7.5L1135.5 4V12.5C1135.5 12.5 1138 10.5 1138 7.5L1141.5 4V12.5C1141.5 12.5 1144 10.5 1144 7.5L1147.5 4V12.5C1147.5 12.5 1150 10.5 1150 7.5L1153.5 4V12.5C1153.5 12.5 1156 10.5 1156 7.5L1159.5 4V12.5C1159.5 12.5 1162 10.5 1162 7.5L1165.5 4V12.5C1165.5 12.5 1168 10.5 1168 7.5L1171.5 4V12.5C1171.5 12.5 1174 10.5 1174 7.5L1177.5 4V12.5C1177.5 12.5 1180 10.5 1180 7.5L18.901 1.153z"/> </symbol>


  </defs>
</svg>
