<svg version='1.1' xmlns='http://www.w3.org/2000/svg' xmlns:xlink='http://www.w3.org/1999/xlink'>
  <defs>
    <symbol id='menuLines' viewBox='0 0 18 15'>
      <path fill='#424242' d='M18,1.484c0,0.82-0.665,1.484-1.484,1.484H1.484C0.665,2.969,0,2.304,0,1.484l0,0C0,0.665,0.665,0,1.484,0 h15.031C17.335,0,18,0.665,18,1.484L18,1.484z'/>
      <path fill='#424242' d='M18,7.516C18,8.335,17.335,9,16.516,9H1.484C0.665,9,0,8.335,0,7.516l0,0c0-0.82,0.665-1.484,1.484-1.484 h15.031C17.335,6.031,18,6.696,18,7.516L18,7.516z'/>
      <path fill='#424242' d='M18,13.516C18,14.335,17.335,15,16.516,15H1.484C0.665,15,0,14.335,0,13.516l0,0 c0-0.82,0.665-1.484,1.484-1.484h15.031C17.335,12.031,18,12.696,18,13.516L18,13.516z'/>
    </symbol>

    <symbol id='facebook' viewBox='0 0 24 24'>
      <path d="M22.675 0h-21.35c-.732 0-1.325.593-1.325 1.325v21.351c0 .731.593 1.324 1.325 1.324h11.495v-9.294h-3.128v-3.622h3.128v-2.671c0-3.1 1.893-4.788 4.659-4.788 1.325 0 2.463.099 2.795.143v3.24l-1.918.001c-1.504 0-1.795.715-1.795 1.763v2.313h3.587l-.467 3.622h-3.12v9.293h6.116c.73 0 1.323-.593 1.323-1.325v-21.35c0-.732-.593-1.325-1.325-1.325z"/>
    </symbol>

<symbol id="instagram" viewBox="0 0 24 24">
  <path d="M12 2.163c3.204 0 3.584.012 4.85.07 1.366.062 2.633.337 3.608 1.312.975.975 1.25 2.242 1.312 3.608.058 1.266.07 1.646.07 4.85s-.012 3.584-.07 4.85c-.062 1.366-.337 2.633-1.312 3.608-.975.975-2.242 1.25-3.608 1.312-1.266.058-1.646.07-4.85.07s-3.584-.012-4.85-.07c-1.366-.062-2.633-.337-3.608-1.312-.975-.975-1.2

  </symbol>

    <symbol id='linkedin' viewBox='0 0 24 24'>
      <title>LinkedIn icon</title>
      <path d='M19 0h-14c-2.761 0-5 2.239-5 5v14c0 2.761 2.239 5 5 5h14c2.762 0 5-2.239 5-5v-14c0-2.761-2.238-5-5-5zm-11 19h-3v-11h3v11zm-1.5-12.268c-.966 0-1.75-.79-1.75-1.764s.784-1.764 1.75-1.764 1.75.79 1.75 1.764-.783 1.764-1.75 1.764zm13.5 12.268h-3v-5.604c0-3.368-4-3.113-4 0v5.604h-3v-11h3v1.765c1.396-2.586 7-2.777 7 2.476v6.759z'/>
    </symbol>

<symbol id="x" viewBox="0 0 24 24">
  <path d="M22.675 0H1.325C.593 0 0 .593 0 1.325v21.351C0 23.407.593 24 1.325 24h21.351C23.407 24 24 23.407 24 22.675V1.325C24 .593 23.407 0 22.675 0zm-6.342 8.145L18
  </symbol>


  </defs>
</svg>
